<svg xmlns:xlink="http://www.w3.org/1999/xlink" xmlns="http://www.w3.org/2000/svg" width="30" height="25"
     viewBox="0 0 30 25">
    <defs>
        <path id="a"
              d="M1219.71 2021.57v.71a.8.8 0 0 1-.8.81h-8.49a.8.8 0 0 1-.8-.8v-.72a2.55 2.55 0 0 1 2.54-2.56h.66c.34 0 .62-.28.62-.62a.48.48 0 0 0-.14-.34c-.38-.37-.7-.86-.93-1.4a.25.25 0 0 1-.13.04c-.37 0-.8-.82-.8-1.38 0-.56.05-1.01.42-1.01l.1.01c.03-1.52.3-3.4 2.7-3.4 2.3 0 2.69 1.89 2.71 3.4l.14-.01c.37 0 .42.45.42 1 0 .57-.43 1.4-.8 1.4a.26.26 0 0 1-.16-.07 4.48 4.48 0 0 1-.93 1.42.47.47 0 0 0-.14.34c0 .34.27.62.61.62h.66c1.4 0 2.54 1.15 2.54 2.56zm5.67-9v.96a.6.6 0 0 1-.6.6h-6.34c-.1-.19-.2-.34-.36-.43a5.3 5.3 0 0 0-.41-1.72h7.12c.33 0 .6.27.6.6zm0 3.93v.95a.6.6 0 0 1-.6.6h-7.4v-.57l.05-.1c.57-.17.99-.84 1.16-1.48h6.2c.33 0 .6.27.59.6zm0 3.92v.95a.6.6 0 0 1-.6.6h-4.33v-.4a3.3 3.3 0 0 0-.5-1.75h4.84c.33 0 .6.27.6.6zm5.62-10.74v14.63a3.67 3.67 0 0 1-3.66 3.69h-19.68a3.67 3.67 0 0 1-3.66-3.69v-14.63a3.67 3.67 0 0 1 3.66-3.68h19.68a3.67 3.67 0 0 1 3.66 3.68zm-1.73 0c0-1.07-.86-1.94-1.93-1.94h-19.68c-1.07 0-1.93.87-1.93 1.94v14.63c0 1.08.86 1.95 1.93 1.95h19.68c1.07 0 1.93-.87 1.93-1.95z"/>
    </defs>
    <g transform="translate(-1202 -2004)">
        <use fill="#18cfab" xlink:href="#a"/>
    </g>
</svg>