<svg xmlns:xlink="http://www.w3.org/1999/xlink" xmlns="http://www.w3.org/2000/svg" width="37" height="25"
     viewBox="0 0 37 25">
    <defs>
        <path id="a"
              d="M829 1834.9c-.01.03-.52 3.1-4.46 3.1h-25.08c-3.94 0-4.45-3.07-4.45-3.1-.01-.05 0-.1.04-.14a.17.17 0 0 1 .13-.06h33.64a.17.17 0 0 1 .17.2zm-14.47.88h-5.06v1.14h5.06zm-16.56-2.96v-16.14a.7.7 0 0 1 .7-.68h26.66c.38 0 .7.3.7.68v16.14a.7.7 0 0 1-.7.69h-26.66a.7.7 0 0 1-.7-.69zm2.45-1.72h23.16v-12.7h-23.16z"/>
    </defs>
    <g transform="translate(-793 -1814)">
        <use fill="#18cfab" xlink:href="#a"/>
    </g>
</svg>