<svg xmlns:xlink="http://www.w3.org/1999/xlink" xmlns="http://www.w3.org/2000/svg" width="102" height="79"
     viewBox="0 0 102 79">
    <defs>
        <path id="a"
              d="M1631 1135.98h38.8V1193H1631zm22.09 52.32c0-1-.84-1.83-1.87-1.83-1.04 0-1.87.83-1.87 1.83 0 1.01.83 1.84 1.87 1.84 1.03 0 1.87-.83 1.87-1.84zm-16.48-4.76h27.58v-42.07h-27.58zm13.58-50h-5.48V1117h73.13v30.08h-5.48v-24.72h-62.17zm22.1 25.33h28.82v5.37h-28.81zm57.71-9.7v42.94h-26.06v-42.95zm-13.08 2.39c0 .34.28.62.63.62s.63-.28.63-.62a.62.62 0 0 0-.63-.62.62.62 0 0 0-.63.62zm-3.12 2.03h7.5v-.59h-7.5zm5 35.19c0-.82-.67-1.47-1.5-1.47s-1.5.66-1.5 1.47c0 .81.68 1.47 1.5 1.47.83 0 1.5-.66 1.5-1.47zm7.02-33.08h-17.7v29.53c3.36.03 10.93 0 17.7-.03zm-24.7 10.74v7.61h-28.82v-2.94h19.31v-1.42h-19.31v-3.25z"/>
    </defs>
    <g transform="translate(-1629 -1115)">
        <use fill="#fff" xlink:href="#a"/>
    </g>
</svg>