<svg xmlns:xlink="http://www.w3.org/1999/xlink" xmlns="http://www.w3.org/2000/svg" width="31" height="31"
     viewBox="0 0 31 31">
    <defs>
        <path id="a"
              d="M1230.98 1656.98a2.6 2.6 0 0 1-3.67 0l-6.37-6.36c1.47-.95 2.73-2.2 3.68-3.68l6.36 6.36a2.6 2.6 0 0 1 0 3.68zm-16.58-6.17a10.4 10.4 0 1 1 0-20.81 10.4 10.4 0 0 1 0 20.8zm7.8-10.4a7.81 7.81 0 1 0-15.62.01 7.81 7.81 0 0 0 15.63-.02zm-7.8-6.08v1.74a4.34 4.34 0 0 0-4.33 4.33h-1.73a6.08 6.08 0 0 1 6.06-6.07z"/>
    </defs>
    <g transform="translate(-1202 -1628)">
        <use fill="#18cfab" xlink:href="#a"/>
    </g>
</svg>