<svg xmlns:xlink="http://www.w3.org/1999/xlink" xmlns="http://www.w3.org/2000/svg" width="27" height="27"
     viewBox="0 0 27 27">
    <defs>
        <path id="a"
              d="M1204.87 1835.16c-.87.88-.87 2.3 0 3.18a2.21 2.21 0 0 0 3.15 0l7.31-7.38-3.15-3.18zm18.28-13.68l3.18-1.66 1.67-3.25-1.55-1.57-3.23 1.68-1.65 3.21-3.87 3.92 1.57 1.59zm.7 8.53l-.3-.03c-.55 0-1.06.12-1.55.3l-9.14-9.23c.18-.49.29-1 .29-1.56l-.03-.3a4.46 4.46 0 0 0-4.42-4.2c-.69 0-1.33.18-1.91.46l2.96 2.98c.15.16.26.35.33.54.2.53.09 1.15-.33 1.58a1.47 1.47 0 0 1-2.1 0l-2.96-2.98a4.47 4.47 0 0 0 3.7 6.4l.3.02a4.4 4.4 0 0 0 1.55-.3l9.14 9.23c-.18.5-.29 1-.29 1.56l.03.3a4.46 4.46 0 0 0 4.42 4.2c.7 0 1.33-.17 1.91-.45l-2.95-3a1.51 1.51 0 0 1 0-2.12c.28-.28.67-.43 1.04-.43.18 0 .35.04.52.1.2.07.38.18.54.34l2.95 2.99a4.47 4.47 0 0 0-3.7-6.4z"/>
    </defs>
    <g transform="translate(-1202 -1813)">
        <use fill="#18cfab" xlink:href="#a"/>
    </g>
</svg>