<svg xmlns:xlink="http://www.w3.org/1999/xlink" xmlns="http://www.w3.org/2000/svg" width="29" height="27"
     viewBox="0 0 29 27">
    <defs>
        <path id="a"
              d="M820.17 2005.08a.58.58 0 0 1 .75.74l-7.73 20.96c-.2.53-.63.94-1.17 1.1-.55.17-1.14.07-1.6-.26l-7.23-5.21 16.6-16.2-18.77 14.63-5.29-3.81a1.6 1.6 0 0 1 .38-2.82zM806 2026.54c.05.07-1.81 1.28-3.24 2.2a1.27 1.27 0 0 1-1.93-.83l-1.03-5.56-.05-.25z"/>
    </defs>
    <g transform="translate(-793 -2003)">
        <use fill="#18cfab" xlink:href="#a"/>
    </g>
</svg>