<svg xmlns:xlink="http://www.w3.org/1999/xlink" xmlns="http://www.w3.org/2000/svg" width="61" height="100"
     viewBox="0 0 61 100">
    <defs>
        <path id="a"
              d="M227.42 1196.87h35.96v4.96c0 1.2-.96 2.17-2.14 2.17h-31.68a2.16 2.16 0 0 1-2.14-2.17zm-11.74-71.67a18.1 18.1 0 0 1 18-18.2c9.95 0 18.01 8.14 18.01 18.2 0 6.7-3.59 12.54-8.91 15.7-.77-7.4-1.61-15.66-1.61-15.7a6.6 6.6 0 0 0-2.6-4.68 7.47 7.47 0 0 0-4.43-1.42c-2.1 0-4.1.8-5.49 2.2a6.83 6.83 0 0 0-1.94 4.83l-.01 15.85a18.19 18.19 0 0 1-11.02-16.78zm53.3 54.73c0 2.56-.69 5.08-1.98 7.28l-3.64 6.2H227.4c-10.01-10.25-15.1-21.17-15.86-25.87-.54-3.21 1.68-5.37 4.14-5.37 1.4 0 2.9.7 4.01 2.3.36.53.74 1.1 1.17 1.7 3.2 4.7 6.5 4.74 7.95 4.79h.03c.05 0 .1 0 .14-.02h.02c.52-.07.9-.5.9-1.02l.02-43.8c-.02-2.46 2.13-3.78 4.2-3.78 1.84 0 3.62 1.03 3.84 3.2l2.78 27.15v.01h.01a5.27 5.27 0 0 1 3.47-1.08 9 9 0 0 1 1.66.16c1.84.37 13.84 4.28 19.79 6.24 1.99.65 3.33 2.52 3.33 4.64z"/>
    </defs>
    <g transform="translate(-209 -1105)">
        <use fill="#18cfab" xlink:href="#a"/>
    </g>
</svg>