<svg xmlns:xlink="http://www.w3.org/1999/xlink" xmlns="http://www.w3.org/2000/svg" width="36" height="37"
     viewBox="0 0 36 37">
    <defs>
        <path id="a"
              d="M411.2 1626s-2.8 2.71-5.81 3.8c-22.39 8.1-12.95 23.9-12.64 23.95 0 0 1.25-2.19 2.95-3.43 10.76-7.92 12.95-17.03 12.95-17.03s-2.42 10.96-11.99 17.79c-2.11 1.5-3.55 5.21-4.15 8.92 0 0 1.5-.6 2.14-.77.25-1.64.78-3.21 1.67-4.62 13.38 1.6 17.76-9.2 18.33-12.96 1.35-8.88-3.45-15.65-3.45-15.65z"/>
    </defs>
    <g transform="translate(-381 -1624)">
        <use fill="#18cfab" xlink:href="#a"/>
    </g>
</svg>