<svg xmlns:xlink="http://www.w3.org/1999/xlink" xmlns="http://www.w3.org/2000/svg" width="23" height="38"
     viewBox="0 0 23 38">
    <defs>
        <path id="a"
              d="M405.87 2026.6c0 .53-.4.96-.92.96h-9.9a.94.94 0 0 1-.92-.95c0-.52.41-.95.92-.95h9.9c.5 0 .92.43.92.95zm-.2 2.73c0 .52-.42.94-.93.94h-9.48a.93.93 0 0 1-.93-.94c0-.52.42-.94.93-.94h9.48c.5 0 .93.42.93.94zm-1.25 2.73c0 .52-.41.94-.93.94h-6.98a.93.93 0 0 1-.93-.94c0-.52.4-.94.92-.94h7c.51 0 .93.42.92.94zm5.58-23.1c0 2.82-.75 4.63-2.53 7.33-1.07 1.6-2.55 2.82-2.78 8.46h-9.38c-.23-5.64-1.71-6.86-2.78-8.47-1.78-2.7-2.53-4.5-2.53-7.31 0-6.06 4.4-10.97 9.84-10.97h.32c5.43 0 9.84 4.9 9.84 10.96zm-6.39 1.29a.3.3 0 0 0-.44 0l-3.17 3.3-3.17-3.3a.3.3 0 0 0-.44 0 .32.32 0 0 0-.01.44l3.32 3.46v8.1c0 .16.14.29.3.3.16-.01.3-.14.3-.3v-8.1l3.32-3.46a.32.32 0 0 0 0-.44z"/>
    </defs>
    <g transform="translate(-388 -1996)">
        <use fill="#18cfab" xlink:href="#a"/>
    </g>
</svg>