<svg xmlns:xlink="http://www.w3.org/1999/xlink" xmlns="http://www.w3.org/2000/svg" width="25" height="33"
     viewBox="0 0 25 33">
    <defs>
        <path id="a"
              d="M403.8 1827c.35 4.5 6.47 4.8 6.47 12.43h.87c.47 0 .86.38.86.85v.86c0 .47-.39.86-.86.86h-20.28a.86.86 0 0 1-.86-.86v-.86c0-.47.39-.85.86-.85h.87c0-7.63 6.12-7.93 6.47-12.43-.35-4.5-6.47-4.8-6.47-12.43h-.87a.86.86 0 0 1-.86-.86v-.85c0-.48.39-.86.86-.86h20.28c.47 0 .86.38.86.86v.85c0 .47-.39.86-.86.86h-.87c0 7.63-6.12 7.93-6.47 12.43zm-2.53 4.85a.44.44 0 0 0-.56-.03 24 24 0 0 0-6.45 6.92c-.18.28.04.65.37.65h12.67c.35 0 .56-.4.36-.68-1.68-2.38-3.64-4.37-6.39-6.86zm4.19-11.89c-1.41 0-3.02 1.33-4.9 1.33-1.88 0-4.2-.94-4.2-.94l4.6 4.56s5.9-4.95 4.5-4.95z"/>
    </defs>
    <g transform="translate(-388 -1810)">
        <use fill="#18cfab" xlink:href="#a"/>
    </g>
</svg>